# xmcd CD database file
#
# Track frame offsets:
#	150
#	15430
#	24855
#	34713
#	44878
#	55168
#	67578
#	77660
#	89885
#	100455
#	114780
#	124513
#	134643
#	144993
#	158455
#
# Disc length: 2244 seconds
#
# Revision: 0
# Processed by: cddbd v1.5PL3 Copyright (c) Steve Scherf et al.
# Submitted via: CDex 1.51
#
DISCID=b908c20f
DTITLE=Various Artist - Country Stars Disk 4
DYEAR=1900
DGENRE=Country
TTITLE0=Country Party
TTITLE1=The Race Is On
TTITLE2=Rock Island Line
TTITLE3=Blue Suede Shoes
TTITLE4=If A Woman Answers
TTITLE5=House Down The Block
TTITLE6=A Thing Called Love
TTITLE7=Don't Think Twice, It's All Right
TTITLE8=Rose Colored Glasses
TTITLE9=I Dreamed of Hillbilly Heaven
TTITLE10=I've Got Five Dollars And It's Saturday Night
TTITLE11=Wings Of A Dove
TTITLE12=Three Cigarettes In An Ashtray
TTITLE13=Making Believe
TTITLE14=Walk On By
EXTD=
EXTT0=
EXTT1=
EXTT2=
EXTT3=
EXTT4=
EXTT5=
EXTT6=
EXTT7=
EXTT8=
EXTT9=
EXTT10=
EXTT11=
EXTT12=
EXTT13=
EXTT14=
PLAYORDER=
